<svg xmlns="http://www.w3.org/2000/svg" viewBox="0 0 768 542" fill="#ffffff" aria-hidden="true"><path d="M718.658 1.5v363.337a175.161 175.161 0 1 1-350.321 0V1.5h125.115v369.343a50.046 50.046 0 1 0 100.092 0V1.5zM365.667 442.317a235.308 235.308 0 0 1-8.862-25.432H175.161s54.5-49.378 122.858-117.863c34.132-34.2 50.3-79.434 50.3-124.215v-.288c0-44.779-16.136-89.547-50.3-123.713-68.4-68.4-178.812-67.4-247.217 1C16.6 86.007.008 131.624.01 176.665h125.1c0-13.012 4.885-26.616 14.658-36.389 19.545-19.545 51.232-20.045 70.776-.5a49.744 49.744 0 0 1 0 70.526s-99.9 96.743-186.971 181.676C8.205 406.975 0 429.764 0 452.934 0 501.578 39.435 542 88.081 542H459.33a211.94 211.94 0 0 1-51.842-38.15 192.391 192.391 0 0 1-41.821-61.533z"/></svg>